<svg width="30" height="30" xmlns="http://www.w3.org/2000/svg" shape-rendering="crispEdges">
	<g transform="translate(0,0) scale(1)" fill="currentColor"> <!-- This is for exporting in other sizes -->
		<path
			d="M2 2V1h26v1zm26 0h1v25h-1zm0 25h-1v1h1zm-1 1v1H3v-1zM3 28v-1H2v1zm-1-1H1V2h1z"
			opacity=".7"/>
		<path
			d="M17 17v1h2v2h-1v2h1v1h2v1h1v3h-3v1h2v-2h2v-2h1v-3h1v-2h-1v1h-2v-4h-1v-1h1v-2h1v-1h2v7h1v-3h1V9h1V3h-4v1h-2V3h-2V2H2v25h1v1h6v-1H7v-1H5v-1H4v-1H3v-5h1v-1h1v-1h3v-1H7v-4h1v-2h1V9h3v1h1v1h1v2h1v2h1v2zM10 7H8v1H7v1H6V8H5V3h2v1h1v1h1v1h1zm-4 4v1H5v-1zm0 9h3v1H8v3h1v-1H7v-1H6zm4-6v3h1v2h1v-1h1v-5h-2v-1h1v3h-1v-1z"
			opacity=".9" />
		<path
			d="M2 2h1v1H2zm25 0h1v1h-1zM1 27h1v1H1zm1 1h1v1H2zm26-1h1v1h-1zm-1 1h1v1h-1z"
			opacity=".8" />
	</g>
</svg>